<svg width="25" height="25" viewBox="0 0 25 25" fill="none" xmlns="http://www.w3.org/2000/svg">
<path d="M21.3287 3.67126C18.9613 1.30386 15.8258 0 12.5 0C5.61676 0 0 5.61752 0 12.5C0 14.5367 0.500107 16.5472 1.44901 18.3346L0.021553 24.0913C-0.0402451 24.3404 0.0329971 24.6038 0.214577 24.7854C0.395012 24.966 0.658035 25.0406 0.908661 24.9784L6.66542 23.5508C8.4528 24.4997 10.4633 25 12.5 25C15.8258 25 18.9613 23.6961 21.3287 21.3287C23.6961 18.9611 25 15.8258 25 12.5C25 9.17415 23.6961 6.03866 21.3287 3.67126ZM12.5 23.5351C10.6155 23.5351 8.75702 23.0501 7.1249 22.1329C6.96239 22.0415 6.77109 22.0155 6.5897 22.0604L1.73588 23.2641L2.93941 18.4101C2.98443 18.2291 2.95849 18.0376 2.86713 17.8749C1.94969 16.243 1.46484 14.3844 1.46484 12.5C1.46484 6.41517 6.41518 1.46484 12.5 1.46484C18.5848 1.46484 23.5352 6.41517 23.5352 12.5C23.5352 18.5848 18.5848 23.5351 12.5 23.5351Z" fill="black"/>
<path d="M19.1096 14.7248C18.6242 14.2392 18.0897 13.749 17.4723 13.4512C16.5497 13.0066 15.6695 13.1341 14.9935 13.81C14.6859 14.1177 14.2626 14.7242 14.0191 15.0225C13.3908 14.9174 12.1356 13.859 11.6372 13.3624C11.1407 12.864 10.0831 11.6086 9.97796 10.9816C10.2746 10.7394 10.8832 10.3144 11.1907 10.0072C11.8666 9.33119 11.994 8.45076 11.5494 7.52836C11.2517 6.91077 10.7615 6.37652 10.2763 5.89129C9.28788 4.88211 7.76333 4.80772 6.44745 6.12379C5.46401 7.10703 4.58797 8.92988 5.99788 12.0303C6.83216 13.8644 8.17665 15.4866 8.83946 16.1561L8.84461 16.1612C9.51409 16.8242 11.1363 18.1687 12.9704 19.0028C15.0418 19.9448 17.262 20.1684 18.8771 18.5534C20.2128 17.2175 20.1003 15.6949 19.1096 14.7248ZM17.8412 17.5175C16.8873 18.4714 15.4526 18.5225 13.5768 17.6693C11.9299 16.9203 10.4388 15.6777 9.87782 15.1228C9.32297 14.5617 8.08033 13.0707 7.33131 11.4239C6.47815 9.54805 6.52927 8.11335 7.48314 7.15948C8.0399 6.60273 8.68077 6.35573 9.2297 6.9163L9.24019 6.92698C10.5404 8.22722 10.4481 8.67792 10.1548 8.97127C9.89442 9.23163 9.1248 9.75424 8.87608 10.003C8.29224 10.5866 8.40096 11.4907 9.19899 12.6898C9.67526 13.4057 10.3043 14.1003 10.6011 14.3979L10.6026 14.3996C10.9004 14.6964 11.5948 15.3254 12.3107 15.8017C13.51 16.5997 14.4139 16.7082 14.9975 16.1246C15.2465 15.8757 15.7689 15.1063 16.0292 14.8459C16.2276 14.6475 16.4231 14.5718 16.836 14.7709C17.3148 15.0017 17.8273 15.5142 18.0737 15.7605L18.0844 15.771C18.6494 16.3243 18.3982 16.9606 17.8412 17.5175Z" fill="black"/>
</svg>
